<!DOCTYPE svg PUBLIC "-//W3C//DTD SVG 1.1//EN" "http://www.w3.org/Graphics/SVG/1.1/DTD/svg11.dtd">
<!-- Uploaded to: SVG Repo, www.svgrepo.com, Transformed by: SVG Repo Mixer Tools -->
<svg fill="darkorange" height="800px" width="800px" version="1.1" id="Layer_1" xmlns="http://www.w3.org/2000/svg" xmlns:xlink="http://www.w3.org/1999/xlink" viewBox="0 0 330 330" xml:space="preserve" stroke="darkorange">
<g id="SVGRepo_bgCarrier" stroke-width="0"/>
<g id="SVGRepo_tracerCarrier" stroke-linecap="round" stroke-linejoin="round"/>
<g id="SVGRepo_iconCarrier"> <g id="XMLID_23_"> <path id="XMLID_24_" d="M315,0H15C6.716,0,0,6.716,0,15v300c0,8.284,6.716,15,15,15h300c8.284,0,15-6.716,15-15V15 C330,6.716,323.284,0,315,0z M300,300H30V30h270V300z"/> <path id="XMLID_27_" d="M114.394,255.607C117.322,258.536,121.161,260,125,260c3.839,0,7.678-1.464,10.607-4.394l80-80.002 c2.813-2.813,4.393-6.628,4.393-10.607c0-3.979-1.581-7.794-4.394-10.607l-80-79.998c-5.857-5.857-15.355-5.858-21.213,0.001 c-5.858,5.858-5.858,15.355,0,21.213l69.393,69.392l-69.393,69.395C108.536,240.251,108.536,249.749,114.394,255.607z"/> </g> </g>
</svg>